<?xml version="1.0" standalone="no"?><!DOCTYPE svg PUBLIC "-//W3C//DTD SVG 1.1//EN" "http://www.w3.org/Graphics/SVG/1.1/DTD/svg11.dtd"><svg t="1596600703770" class="icon" viewBox="0 0 1024 1024" version="1.1" xmlns="http://www.w3.org/2000/svg" p-id="1311" xmlns:xlink="http://www.w3.org/1999/xlink" width="200" height="200"><defs><style type="text/css"></style></defs><path d="M786.5 495.7c33.6 1.7 63.8 16.1 86 38.3 23.8 23.8 38.6 56.8 38.6 93.1s-14.7 69.2-38.6 93.1c-23.8 23.8-56.7 38.6-93.1 38.6-36.3-0.1-69.2-14.7-93-38.6-23.8-23.8-38.6-56.7-38.6-93.1 0-36.3 14.7-69.2 38.6-93.1 1.2-1.2 2.5-2.4 3.6-3.5l20.2 56c-7 11.9-11.1 25.8-11.1 40.7 0 22.2 9 42.2 23.6 56.8 14.5 14.5 34.6 23.5 56.7 23.5 22.2 0 42.2-9 56.8-23.5 14.6-14.6 23.5-34.6 23.5-56.8 0-22.1-8.9-42.2-23.5-56.8-8.2-8.2-18.3-14.6-29.5-18.7l-20.2-56z m-543-0.2c33.9 0 64.6 12.7 87.9 33.7l-53.8 25.2c-10.3-4.8-21.8-7.6-34.1-7.6-22.1 0-42.1 9-56.7 23.5-14.6 14.6-23.5 34.7-23.5 56.8 0 22.2 8.9 42.2 23.5 56.8 14.6 14.5 34.6 23.5 56.7 23.5 16.4 0 31.6-4.8 44.2-13.2 19.5 5.5 39 10.6 58.7 15-3.1 3.9-6.4 7.6-9.8 11-23.8 23.8-56.7 38.6-93.1 38.6-36.3-0.1-69.2-14.7-93-38.6-23.8-23.8-38.6-56.7-38.6-93.1 0-36.3 14.7-69.2 38.6-93.1 23.8-23.8 56.6-38.5 93-38.5z m0 0" p-id="1312" fill="#13227a"></path><path d="M532.1 432.1c18.1 3.9 35.2 8.8 51.3 14.4 22.7 7.7 43.5 16.8 62.1 26.5 14.1-12.2 29.7-22.5 46.6-30.5-2.3-5.4-4.7-10.6-7.5-15.2-4.5-7.6-9.7-13.6-16.5-16.2-37.9-14.9-68.5-19.6-92.5-12.6-16.8 4.8-31.1 15.8-43.5 33.6zM406.8 649.6c-2.3-27.1-6.5-51-12.6-72.2l-97.5 45.9c39 11.4 74.4 20 110.1 26.3z m-26.4-108.1c-8.3-16.8-18.4-31.6-30.5-44.4-36.6-38.9-92.5-62.3-170.2-80.8-10.4-2.5-16.7-12.8-14.3-23.2 1.8-7.7 8.2-13.3 15.6-14.6 27.7-6.4 57.3-11.6 87.7-13.7 31.3-2 63.4-0.5 95.2 7.1 19.7 4.6 31.4 23 44 46.7 15.9-0.7 30.6-0.5 44.8 0.7 13 1 25.8 2.8 39 5.2 18.9-33.7 43-54.1 73.2-63 24-6.9 51.1-6.1 81.9 2 1-8.7 1.2-17.6 0.6-26.5-1-16.1-4.5-32-9.7-46.9-3.5-9.9 1.6-20.9 11.6-24.5 3.6-1.3 7.3-1.5 10.7-0.6 50.7 11.6 93.7 29.1 120.6 57.3 28.8 30.3 38.7 70.9 19.7 126.1-2.9 8.6-11.3 13.6-19.9 12.9h-0.8c-12.9 0-25.6 1.5-37.8 4.4l55.9 154.9c3.5 10-1.6 20.9-11.6 24.6-9.9 3.5-20.9-1.6-24.5-11.6l-55.9-154.8c-16.1 8.1-30.7 18.7-43.3 31.2-29.8 29.9-48.4 71.3-48.4 117.1 0 7.7 0.5 20.2 1.5 32 0.7 8.8 1.7 17 2.9 22 2.4 10.4-4 20.7-14.4 23.1-2.1 0.5-4.2 0.6-6.2 0.4-71.9-1.7-128.7-5.8-184.1-14.8-55.8-9.1-109.8-23.1-175.9-44.4-10.1-3.3-15.7-14-12.4-24.1 1.7-5.6 5.8-9.7 10.8-11.8l144.2-68z m0 0" p-id="1313" fill="#13227a"></path></svg>